<svg width="32" height="32" viewBox="0 0 32 32" fill="none" xmlns="http://www.w3.org/2000/svg">
<g clip-path="url(#clip0_49_13)">
<path d="M9.11206 28.1C14.1445 28.1 18.2241 22.3205 18.2241 15.1912C18.2241 8.06192 14.1445 2.28247 9.11206 2.28247C4.07961 2.28247 0 8.06192 0 15.1912C0 22.3205 4.07961 28.1 9.11206 28.1Z" fill="#986B54"/>
<path d="M2.79004 24.4869C4.42854 26.7238 6.65666 28.1 9.11191 28.1C14.1444 28.1 18.224 22.3206 18.224 15.1913C18.224 10.1266 16.1648 5.74401 13.1681 3.62988C14.0602 4.84776 14.7771 6.32113 15.2609 7.96657C15.3289 8.19757 15.3262 8.44367 15.2531 8.67311C15.1799 8.90256 15.0397 9.10483 14.8505 9.25382C14.2349 9.73806 13.6484 10.2584 13.0943 10.812C10.3924 13.5139 8.59023 16.824 8.01979 20.1326C7.75998 21.6395 7.76479 23.0728 8.02173 24.3881C8.16641 25.1289 7.61648 25.8324 6.86166 25.8343H6.84616C5.38885 25.8343 4.01166 25.3488 2.79004 24.4869Z" fill="#845C47"/>
<path d="M9.86967 24.1776C9.56267 22.7353 9.29673 21.2331 8.90355 19.8253C8.53105 18.4549 8.07492 17.1469 7.52198 15.8629C6.19473 12.7941 5.96342 9.11807 7.50067 6.09313C7.5998 5.90763 7.8343 5.83569 8.02442 5.93238C8.42348 6.24063 8.45873 7.63163 8.65411 8.17726C9.13292 10.3664 9.78736 12.5057 10.7022 14.5219C11.3953 16.0705 11.8065 17.7556 11.85 19.4417C11.8879 21.116 11.6073 22.8068 10.8528 24.3091C10.7226 24.5613 10.4075 24.6628 10.1489 24.5358C9.99798 24.4616 9.90242 24.3284 9.86967 24.1776Z" fill="#664545"/>
<path d="M10.149 24.5359C10.4075 24.6629 10.7227 24.5614 10.8529 24.3091C11.6074 22.8067 11.888 21.116 11.85 19.4417C11.8065 17.7557 11.3954 16.0705 10.7023 14.522C10.628 14.3576 10.5554 14.1925 10.4845 14.0266C9.59255 15.4008 8.90573 16.8517 8.45386 18.3247C8.61668 18.8209 8.76663 19.3213 8.90354 19.8253C9.29673 21.2331 9.56267 22.7353 9.86967 24.1776C9.90242 24.3285 9.99798 24.4617 10.149 24.5359Z" fill="#523838"/>
<path d="M27.2652 24.9873C32.3064 19.9461 33.5084 12.9747 29.9499 9.41623C26.3914 5.85775 19.42 7.05972 14.3788 12.1009C9.33766 17.1421 8.1357 24.1135 11.6942 27.672C15.2527 31.2304 22.2241 30.0285 27.2652 24.9873Z" fill="#986B54"/>
<path d="M31.8694 13.2368C31.4252 16.1133 29.851 19.2011 27.2694 21.7828C22.2282 26.8239 15.2568 28.0259 11.6983 24.4674C10.6677 23.4369 10.0373 22.1198 9.78285 20.6466C9.35966 23.3869 9.96216 25.9356 11.6983 27.6717C15.2568 31.2302 22.2282 30.0282 27.2694 24.987C30.8506 21.4058 32.4935 16.8507 31.8694 13.2368Z" fill="#845C47"/>
<path d="M15.0077 25.4337C15.8105 24.1968 16.6847 22.9465 17.4021 21.673C18.1077 20.4407 18.71 19.1932 19.2269 17.8943C20.4584 14.7858 22.8942 12.023 26.1202 10.971C26.3214 10.9099 26.5381 11.0248 26.6042 11.2277C26.6684 11.7278 25.7097 12.7363 25.462 13.2603C24.2527 15.1468 23.2027 17.1223 22.4239 19.1949C21.819 20.78 20.9182 22.2623 19.7567 23.4853C18.5996 24.696 17.2057 25.6931 15.6099 26.2219C15.3394 26.3082 15.0449 26.1572 14.9519 25.8845C14.8976 25.7253 14.9242 25.5636 15.0077 25.4337Z" fill="#523838"/>
</g>
<defs>
<clipPath id="clip0_49_13">
<rect width="32" height="32" fill="white"/>
</clipPath>
</defs>
</svg>
