<svg width="432" height="66" viewBox="0 0 432 66" fill="none" xmlns="http://www.w3.org/2000/svg">
  <path d="M31.848 65.056C25.336 65.056 19.6747 63.7947 14.864 61.272C10.112 58.7493 6.47467 55.288 3.952 50.888C1.42933 46.4293 0.168 41.4427 0.168 35.928C0.168 30.5893 1.576 25.808 4.392 21.584C7.208 17.3013 11.0507 13.9867 15.92 11.64C20.7893 9.23466 26.216 8.032 32.2 8.032C34.9573 8.032 37.7733 8.296 40.648 8.824C43.5227 9.29333 45.7813 9.88 47.424 10.584C47.8933 10.8187 48.1867 11.0533 48.304 11.288C48.4213 11.5227 48.5093 11.9627 48.568 12.608L49.272 24.136C49.272 24.3707 49.1253 24.5173 48.832 24.576C48.5387 24.6347 48.3333 24.576 48.216 24.4C46.1627 19.9413 43.464 16.48 40.12 14.016C36.776 11.4933 32.904 10.232 28.504 10.232C22.8133 10.232 18.384 12.256 15.216 16.304C12.048 20.2933 10.464 25.7493 10.464 32.672C10.464 38.7147 11.52 44.0533 13.632 48.688C15.744 53.3227 18.6187 56.9013 22.256 59.424C25.952 61.9467 30.1173 63.208 34.752 63.208C36.864 63.208 38.4773 62.9147 39.592 62.328C40.7067 61.6827 41.4693 60.656 41.88 59.248C42.3493 57.7813 42.584 55.6693 42.584 52.912C42.584 50.0373 42.32 47.9547 41.792 46.664C41.264 45.3733 40.296 44.5227 38.888 44.112C37.48 43.7013 35.2213 43.496 32.112 43.496C31.76 43.496 31.584 43.2613 31.584 42.792C31.584 42.616 31.6133 42.4693 31.672 42.352C31.7893 42.176 31.9067 42.088 32.024 42.088C36.8933 42.3813 40.9413 42.528 44.168 42.528C47.2187 42.528 50.3867 42.44 53.672 42.264C53.9067 42.264 54.0533 42.4693 54.112 42.88C54.1707 43.2907 54.0827 43.496 53.848 43.496C52.9093 43.4373 52.3227 43.672 52.088 44.2C51.8533 44.728 51.736 45.9307 51.736 47.808V53.792C51.736 56.432 51.824 58.28 52 59.336C52.176 60.392 52.264 61.1253 52.264 61.536C52.264 61.888 52.2053 62.1227 52.088 62.24C52.0293 62.3573 51.824 62.4747 51.472 62.592C43.9627 64.2347 37.4213 65.056 31.848 65.056ZM92.3563 33.64C92.3563 34.6373 91.8869 35.7227 90.9483 36.896C90.0096 38.0107 88.9829 38.568 87.8683 38.568C87.2816 38.568 86.7536 38.48 86.2843 38.304C85.8736 38.0693 85.3456 37.776 84.7003 37.424C84.2896 37.1893 83.8789 36.984 83.4683 36.808C83.1163 36.632 82.7643 36.544 82.4123 36.544C81.2976 36.544 80.2416 37.9813 79.2443 40.856C78.3056 43.672 77.5429 47.1333 76.9563 51.24C76.4283 55.288 76.1349 58.9547 76.0763 62.24V62.944C76.0763 64.1173 74.4043 64.704 71.0603 64.704C69.0069 64.704 67.9216 64.4693 67.8043 64V61.976C67.9216 60.3333 67.9803 58.8373 67.9803 57.488L68.0683 37.864C68.0683 34.9893 67.3056 33.552 65.7803 33.552C64.4309 33.552 62.8469 34.7253 61.0283 37.072C60.9109 37.1893 60.7936 37.248 60.6763 37.248C60.4416 37.248 60.2363 37.16 60.0603 36.984C59.8843 36.7493 59.8843 36.5147 60.0603 36.28C61.8203 33.816 63.5216 32.0267 65.1643 30.912C66.8069 29.7973 68.5376 29.24 70.3563 29.24C72.4096 29.24 73.8763 29.8853 74.7563 31.176C75.6363 32.408 76.1349 34.2853 76.2523 36.808L76.1643 46.224C76.9269 41.0027 78.0709 36.8667 79.5963 33.816C81.1216 30.7067 83.1163 29.152 85.5803 29.152C87.0469 29.152 88.5429 29.6213 90.0683 30.56C91.5936 31.44 92.3563 32.4667 92.3563 33.64ZM139.164 57.224C139.223 57.1653 139.311 57.136 139.428 57.136C139.604 57.136 139.78 57.2533 139.956 57.488C140.132 57.664 140.191 57.8107 140.132 57.928C138.489 60.216 136.905 61.9467 135.38 63.12C133.855 64.2347 132.3 64.792 130.716 64.792C128.604 64.792 127.02 64.088 125.964 62.68C124.908 61.272 124.38 59.1013 124.38 56.168V50.184C122.796 54.8773 120.567 58.544 117.692 61.184C114.817 63.824 111.767 65.144 108.54 65.144C106.135 65.144 104.169 64.352 102.644 62.768C101.177 61.1253 100.444 58.632 100.444 55.288C100.444 51.416 101.5 47.4267 103.612 43.32C105.724 39.1547 108.423 35.7227 111.708 33.024C115.052 30.2667 118.455 28.888 121.916 28.888C123.148 28.888 124.409 29.0933 125.7 29.504C127.049 29.856 128.252 30.4133 129.308 31.176C130.423 30.296 131.244 29.2987 131.772 28.184C131.889 28.0667 132.007 28.008 132.124 28.008C132.3 28.008 132.476 28.0667 132.652 28.184C132.887 28.3013 132.975 28.3893 132.916 28.448L132.74 56.168C132.681 57.5173 132.799 58.544 133.092 59.248C133.444 59.952 133.943 60.304 134.588 60.304C135.175 60.304 135.879 60.04 136.7 59.512C137.521 58.9253 138.343 58.1627 139.164 57.224ZM113.556 58.72C115.492 58.72 117.281 57.7813 118.924 55.904C120.625 54.0267 121.945 51.7387 122.884 49.04C123.881 46.2827 124.38 43.76 124.38 41.472C124.38 38.8907 123.764 36.8667 122.532 35.4C121.359 33.9333 119.745 33.2 117.692 33.2C114.7 33.2 112.353 34.6667 110.652 37.6C108.951 40.4747 108.1 44.2293 108.1 48.864C108.159 52.3253 108.687 54.848 109.684 56.432C110.681 57.9573 111.972 58.72 113.556 58.72ZM109.156 22.64C109.039 22.64 108.892 22.5813 108.716 22.464C108.54 22.288 108.481 22.1413 108.54 22.024C109.537 19.9707 110.593 18.2693 111.708 16.92C112.823 15.5707 114.26 14.896 116.02 14.896C116.607 14.896 117.399 15.0427 118.396 15.336C119.393 15.5707 120.039 15.7173 120.332 15.776C123.324 16.656 125.553 17.096 127.02 17.096C128.252 17.096 129.22 16.92 129.924 16.568C130.687 16.216 131.449 15.6 132.212 14.72C132.212 14.6613 132.212 14.632 132.212 14.632C132.271 14.632 132.3 14.632 132.3 14.632C132.417 14.632 132.564 14.72 132.74 14.896C132.916 15.072 132.975 15.2187 132.916 15.336C131.684 18.152 130.569 20.0293 129.572 20.968C128.575 21.9067 127.313 22.376 125.788 22.376C124.673 22.376 122.972 22.0533 120.684 21.408C119.628 21.1147 118.543 20.8507 117.428 20.616C116.313 20.3813 115.287 20.264 114.348 20.264C112.94 20.264 111.972 20.4107 111.444 20.704C110.916 20.9973 110.183 21.6427 109.244 22.64H109.156ZM161.301 65.232C157.899 65.232 154.965 64.44 152.501 62.856C150.096 61.2133 148.277 59.0427 147.045 56.344C145.813 53.6453 145.197 50.6827 145.197 47.456C145.197 43.8187 145.96 40.592 147.485 37.776C149.011 34.96 151.123 32.7893 153.821 31.264C156.579 29.68 159.659 28.888 163.061 28.888C168.224 28.888 172.243 30.5307 175.117 33.816C177.992 37.1013 179.43 41.3547 179.43 46.576C179.43 50.5067 178.579 53.88 176.877 56.696C175.176 59.512 172.947 61.6533 170.189 63.12C167.432 64.528 164.469 65.232 161.301 65.232ZM164.205 63.032C166.317 63.032 167.901 61.9173 168.957 59.688C170.013 57.4 170.541 54.2613 170.541 50.272C170.541 46.8693 170.072 43.7013 169.133 40.768C168.253 37.776 167.021 35.4 165.437 33.64C163.853 31.88 162.123 31 160.245 31C158.309 31 156.784 32.0267 155.669 34.08C154.555 36.1333 153.997 39.184 153.997 43.232C153.997 46.752 154.467 50.0373 155.405 53.088C156.344 56.08 157.576 58.4853 159.101 60.304C160.685 62.1227 162.387 63.032 164.205 63.032ZM270.149 9C270.325 9 270.413 9.176 270.413 9.528C270.413 9.88 270.325 10.056 270.149 10.056C267.743 10.056 265.778 10.8773 264.253 12.52C262.786 14.1627 262.023 16.392 261.965 19.208L261.877 64.616C261.935 64.792 261.789 64.9387 261.437 65.056C261.143 65.232 260.791 65.32 260.381 65.32C259.794 65.32 259.413 65.144 259.237 64.792L222.365 18.504L222.277 53.792C222.218 56.608 222.922 58.8373 224.389 60.48C225.855 62.1227 227.821 62.944 230.285 62.944C230.519 62.944 230.637 63.12 230.637 63.472C230.637 63.824 230.519 64 230.285 64C228.642 64 227.381 63.9707 226.501 63.912L220.957 63.824L215.677 63.912C214.679 63.9707 213.271 64 211.453 64C211.218 64 211.101 63.824 211.101 63.472C211.101 63.12 211.218 62.944 211.453 62.944C213.917 62.944 215.853 62.1227 217.261 60.48C218.727 58.8373 219.49 56.608 219.549 53.792L219.637 15.16C217.935 13.2827 216.41 11.9627 215.061 11.2C213.77 10.4373 212.421 10.056 211.013 10.056C210.895 10.056 210.837 9.88 210.837 9.528C210.837 9.176 210.895 9 211.013 9L215.765 9.088C216.703 9.14666 217.965 9.176 219.549 9.176C221.133 9.176 222.453 9.14666 223.509 9.088C224.623 9.02933 225.357 9 225.709 9C226.178 9 226.53 9.11733 226.765 9.352C227.058 9.58666 227.381 10.0267 227.733 10.672C228.437 11.728 229.141 12.696 229.845 13.576L259.149 50.184L259.325 19.208C259.383 16.392 258.679 14.1627 257.213 12.52C255.805 10.8773 253.839 10.056 251.317 10.056C251.082 10.056 250.965 9.88 250.965 9.528C250.965 9.176 251.082 9 251.317 9L254.749 9.088C257.095 9.20533 259.061 9.264 260.645 9.264C261.877 9.264 263.607 9.20533 265.837 9.088L270.149 9ZM293.291 65.232C289.889 65.232 286.955 64.44 284.491 62.856C282.086 61.2133 280.267 59.0427 279.035 56.344C277.803 53.6453 277.187 50.6827 277.187 47.456C277.187 43.8187 277.95 40.592 279.475 37.776C281.001 34.96 283.113 32.7893 285.811 31.264C288.569 29.68 291.649 28.888 295.051 28.888C300.214 28.888 304.233 30.5307 307.107 33.816C309.982 37.1013 311.419 41.3547 311.419 46.576C311.419 50.5067 310.569 53.88 308.867 56.696C307.166 59.512 304.937 61.6533 302.179 63.12C299.422 64.528 296.459 65.232 293.291 65.232ZM296.195 63.032C298.307 63.032 299.891 61.9173 300.947 59.688C302.003 57.4 302.531 54.2613 302.531 50.272C302.531 46.8693 302.062 43.7013 301.123 40.768C300.243 37.776 299.011 35.4 297.427 33.64C295.843 31.88 294.113 31 292.235 31C290.299 31 288.774 32.0267 287.659 34.08C286.545 36.1333 285.987 39.184 285.987 43.232C285.987 46.752 286.457 50.0373 287.395 53.088C288.334 56.08 289.566 58.4853 291.091 60.304C292.675 62.1227 294.377 63.032 296.195 63.032ZM347.017 28.888C350.009 28.888 352.415 30.0907 354.233 32.496C356.111 34.9013 357.079 38.04 357.137 41.912C357.137 46.664 355.964 50.8 353.617 54.32C351.271 57.84 348.367 60.5387 344.905 62.416C341.444 64.2347 338.1 65.144 334.873 65.144C331.06 65.144 328.009 64.352 325.721 62.768C323.492 61.184 322.407 59.0427 322.465 56.344L322.817 12.168C322.876 10.2907 322.671 8.94133 322.201 8.12C321.791 7.24 321.087 6.8 320.089 6.8C319.033 6.8 317.743 7.18133 316.217 7.944H316.041C315.807 7.944 315.631 7.79733 315.513 7.504C315.396 7.21067 315.455 7.00533 315.689 6.888L329.593 0.199998H329.769C330.004 0.199998 330.239 0.287997 330.473 0.463995C330.708 0.639996 330.825 0.786664 330.825 0.903999V43.496C332.116 39.1547 334.199 35.6347 337.073 32.936C340.007 30.2373 343.321 28.888 347.017 28.888ZM337.953 62.68C339.889 62.68 341.649 61.976 343.233 60.568C344.817 59.1013 346.049 57.0187 346.929 54.32C347.868 51.5627 348.308 48.336 348.249 44.64C348.367 41.7653 347.927 39.4187 346.929 37.6C345.932 35.7227 344.465 34.784 342.529 34.784C340.241 34.784 338.217 35.6347 336.457 37.336C334.697 39.0373 333.319 41.4133 332.321 44.464C331.324 47.5147 330.825 51.0053 330.825 54.936V55.552C330.825 57.6053 331.5 59.3067 332.849 60.656C334.257 62.0053 335.959 62.68 337.953 62.68ZM394.832 33.64C394.832 34.6373 394.363 35.7227 393.424 36.896C392.486 38.0107 391.459 38.568 390.344 38.568C389.758 38.568 389.23 38.48 388.76 38.304C388.35 38.0693 387.822 37.776 387.176 37.424C386.766 37.1893 386.355 36.984 385.944 36.808C385.592 36.632 385.24 36.544 384.888 36.544C383.774 36.544 382.718 37.9813 381.72 40.856C380.782 43.672 380.019 47.1333 379.432 51.24C378.904 55.288 378.611 58.9547 378.552 62.24V62.944C378.552 64.1173 376.88 64.704 373.536 64.704C371.483 64.704 370.398 64.4693 370.28 64V61.976C370.398 60.3333 370.456 58.8373 370.456 57.488L370.544 37.864C370.544 34.9893 369.782 33.552 368.256 33.552C366.907 33.552 365.323 34.7253 363.504 37.072C363.387 37.1893 363.27 37.248 363.152 37.248C362.918 37.248 362.712 37.16 362.536 36.984C362.36 36.7493 362.36 36.5147 362.536 36.28C364.296 33.816 365.998 32.0267 367.64 30.912C369.283 29.7973 371.014 29.24 372.832 29.24C374.886 29.24 376.352 29.8853 377.232 31.176C378.112 32.408 378.611 34.2853 378.728 36.808L378.64 46.224C379.403 41.0027 380.547 36.8667 382.072 33.816C383.598 30.7067 385.592 29.152 388.056 29.152C389.523 29.152 391.019 29.6213 392.544 30.56C394.07 31.44 394.832 32.4667 394.832 33.64ZM430.237 58.456C430.413 58.456 430.589 58.544 430.765 58.72C430.941 58.896 430.97 59.0427 430.853 59.16C428.976 61.2133 426.834 62.7093 424.429 63.648C422.024 64.5867 419.56 65.056 417.037 65.056C413.517 65.056 410.525 64.264 408.061 62.68C405.597 61.096 403.749 59.0133 402.517 56.432C401.285 53.8507 400.669 51.0933 400.669 48.16C400.669 44.992 401.49 41.9413 403.133 39.008C404.776 36.016 407.093 33.5813 410.085 31.704C413.136 29.8267 416.626 28.888 420.557 28.888C423.197 28.888 425.25 29.2987 426.717 30.12C428.242 30.9413 429.093 32.1147 429.269 33.64C429.504 36.2213 427.685 38.6267 423.813 40.856C419.941 43.0853 415.16 44.6987 409.469 45.696C409.704 50.2133 410.877 53.9387 412.989 56.872C415.16 59.7467 418.093 61.184 421.789 61.184C423.197 61.184 424.634 60.9787 426.101 60.568C427.568 60.0987 428.888 59.3947 430.061 58.456H430.237ZM415.981 31.264C413.928 31.264 412.314 32.496 411.141 34.96C410.026 37.3653 409.469 40.4747 409.469 44.288C416.568 42.6453 420 39.712 419.765 35.488C419.765 34.1973 419.413 33.1707 418.709 32.408C418.064 31.6453 417.154 31.264 415.981 31.264Z" fill="#DCCA87" />
</svg>